<?xml version="1.0" encoding="utf-8"?>
<!-- Generator: Adobe Illustrator 21.0.0, SVG Export Plug-In . SVG Version: 6.00 Build 0)  -->
<svg version="1.1" id="Layer_1" xmlns="http://www.w3.org/2000/svg" xmlns:xlink="http://www.w3.org/1999/xlink" x="0px" y="0px"
	 viewBox="0 0 288 228" style="enable-background:new 0 0 288 228;" xml:space="preserve">
<style type="text/css">
	.st0{fill:#EEEEEE;}
	.st1{fill:#96A2BA;}
</style>
<rect x="-8" y="-4" class="st0" width="300" height="241"/>
<g>
	<path class="st1" d="M162.9,24.5c12.4,0,24.8,0,37.1,0c6.1,0,12.2,0,18.3,0c3.1,0,6.3,0,9.4,0c3.1,0,6.3-0.3,9.3,0.2
		c2.8,0.4,5.3,1.1,7.8,2.4c2.2,1.2,4.1,2.9,5.6,4.9c1.6,2.2,2.2,4.5,3,7.1c0.4,1.3,0.5,2.3,0.5,3.7c0,1.5-0.4,2.8-0.6,4.2
		c-0.9,5.4-2.2,10.8-3.4,16.1c-1.2,5.4-2.2,10.9-3.5,16.3c-2.5,10.9-4.6,21.9-7,32.8c-1.2,5.4-2.2,10.8-3.5,16.2
		c-1.3,5.4-2.1,10.8-3.4,16.2c-2.6,10.7-4.6,21.5-6.9,32.3c-1.2,5.5-2.6,10.6-6.1,15.1c-3.3,4.2-7.9,7.5-12.9,9.5
		c-5.5,2.3-11.3,1.9-17.2,1.9c-6.2,0-12.4,0-18.6,0c-12.3,0-24.6,0-36.9,0c-24.6,0-49.2,0.1-73.8,0.2c-5.8,0-11.5,0.4-16.8-2.4
		c-4.8-2.5-8.3-7.4-8.9-12.8c-0.3-2.8-0.1-5.2,0.4-8c0.5-2.8,1.1-5.5,1.6-8.3c1-5.5,2.6-11,3.6-16.5c0.2-1.3,0.6-2.6,0.9-3.8
		c0.3-1.4,0.5-2.9,0.8-4.3c0.6-2.7,1.3-5.5,1.8-8.3c0.4-2.7,1.3-5.3,1.7-8.1c0.4-2.7,1.2-5.2,1.7-7.8c0.4-2.6,1-5.3,1.6-7.8
		c0.7-2.8,1-5.6,1.8-8.4c0.8-2.6,1.2-5.4,1.7-8c0.5-2.7,1.2-5.3,1.7-7.9c0.5-2.8,1.4-5.5,1.8-8.2c0.2-1.2,0.5-2.4,0.7-3.6
		c0.3-1.3,0.7-2.6,0.9-3.9c1-5.5,2.3-10.9,3.5-16.3c1.2-5.5,1.9-11.4,4-16.7c2-5,5.7-9.3,10-12.4c4.4-3.2,9.6-5.3,15-5.6
		c6.1-0.4,12.3,0,18.4,0c12.4,0,24.8,0,37.2,0C151.1,24.5,157,24.5,162.9,24.5z M159.7,178.1c0-0.1,24,0,26.2,0
		c3.8,0,7.6,0.1,10.1-3.3c1.1-1.6,1.4-3.6,1.8-5.4c0.4-2,0.8-4.1,1.3-6.1c3.4-16,6.8-32.1,10.3-48.1c1.7-7.9,3.4-15.9,5.1-23.8
		c0.9-4,1.6-7.9,2.5-11.9c0.9-4,1.9-7.9,2.6-11.9c0.7-4,1.7-7.9,2.5-11.9c0.4-1.7,0-3.7-1.5-4.8c-1.5-1.1-3.6-0.9-5.3-0.9
		c-8.9,0-17.8,0-26.7,0c-17.8,0-35.6,0.1-53.4,0.1c-8.9,0-17.8,0-26.8,0c-2.3,0-4.5,0-6.8,0c-2,0-4.3-0.3-6.2,0.2
		c-1.7,0.5-3.3,1.6-4.3,3.1c-1.1,1.6-1.2,3.5-1.6,5.3c-0.4,1.9-0.8,3.8-1.2,5.7c-0.5,1.9-0.7,4-1.2,5.9c-1,3.7-1.4,7.7-2.4,11.4
		c-1.2,4.1-1.8,8.3-2.7,12.5c-0.8,3.9-1.8,7.7-2.5,11.6c-1.6,8.3-3.6,16.4-5.3,24.7c-1.8,8.4-3.7,16.9-5.4,25.3
		c-0.9,4.3-1.8,8.6-2.8,13c-0.4,1.9-1.3,4.2-0.9,6.1c0.4,1.5,1.6,2.7,3.1,3c1.9,0.4,4.1,0.1,6.1,0.1c2.2,0,4.4,0,6.5,0
		c4.4,0,8.9,0,13.3,0c8.8,0,17.6,0,26.4-0.1c4.4,0,8.8,0.3,13.2,0.2c4.4,0,8.8-0.1,13.2-0.1C151.1,178.1,155.4,178.1,159.7,178.1z"
		/>
	<circle class="st1" cx="143.7" cy="113.9" r="41.4"/>
</g>
</svg>
